<svg xmlns="http://www.w3.org/2000/svg" width="30" height="30"><path d="M30 15a15 15 0 1 0-17.344 14.818V19.336H8.848V15h3.809v-3.3c0-3.759 2.239-5.836 5.666-5.836a23.066 23.066 0 0 1 3.358.293v3.687h-1.893a2.168 2.168 0 0 0-2.444 2.342V15H21.5l-.665 4.336h-3.5v10.482A15 15 0 0 0 30 15Z" style="fill:#1877f2"/><path d="m162.991 113.477.665-4.336H159.5v-2.814a2.168 2.168 0 0 1 2.444-2.342h1.891v-3.691a23.067 23.067 0 0 0-3.358-.293c-3.426 0-5.666 2.077-5.666 5.836v3.3H151v4.336h3.809v10.482a15.163 15.163 0 0 0 4.688 0v-10.478Z" transform="translate(-142.152 -94.141)" style="fill:#fff"/></svg>