<svg xmlns="http://www.w3.org/2000/svg" width="30" height="30"><defs><linearGradient id="a" x1=".146" y1=".854" x2=".854" y2=".146" gradientUnits="objectBoundingBox"><stop offset="0" stop-color="#ffd521"/><stop offset=".055" stop-color="#ffd020"/><stop offset=".124" stop-color="#fec01e"/><stop offset=".2" stop-color="#fca71b"/><stop offset=".282" stop-color="#fa8316"/><stop offset=".368" stop-color="#f85510"/><stop offset=".456" stop-color="#f51e09"/><stop offset=".5" stop-color="#f30005"/><stop offset=".503" stop-color="#f20007"/><stop offset=".597" stop-color="#e1003b"/><stop offset=".688" stop-color="#d30067"/><stop offset=".776" stop-color="#c70088"/><stop offset=".859" stop-color="#bf00a0"/><stop offset=".936" stop-color="#bb00af"/><stop offset="1" stop-color="#b900b4"/></linearGradient><style>.b{fill:#fff}</style></defs><path d="M15 30A15 15 0 0 1 0 15 15 15 0 0 1 15 0a15 15 0 0 1 15 15 15 15 0 0 1-15 15Z" style="fill:url(#a)"/><g transform="translate(4.524 4.527)"><path class="b" d="M10.476 1.887c2.8 0 3.127.009 4.232.061a5.747 5.747 0 0 1 1.946.362 3.464 3.464 0 0 1 1.985 1.99 5.826 5.826 0 0 1 .362 1.946c.049 1.1.061 1.436.061 4.232s-.009 3.127-.061 4.232a5.746 5.746 0 0 1-.362 1.946 3.464 3.464 0 0 1-1.985 1.985 5.826 5.826 0 0 1-1.946.362c-1.1.049-1.436.061-4.232.061s-3.127-.009-4.232-.061a5.746 5.746 0 0 1-1.946-.362 3.464 3.464 0 0 1-1.985-1.985 5.826 5.826 0 0 1-.362-1.946c-.049-1.1-.061-1.436-.061-4.232s.009-3.127.061-4.232A5.747 5.747 0 0 1 2.313 4.3a3.464 3.464 0 0 1 1.985-1.985 5.826 5.826 0 0 1 1.946-.362c1.1-.052 1.436-.061 4.232-.061m0-1.887c-2.845 0-3.2.012-4.318.064a7.7 7.7 0 0 0-2.544.488 5.056 5.056 0 0 0-1.853 1.206A5.155 5.155 0 0 0 .552 3.62a7.743 7.743 0 0 0-.488 2.544C.012 7.281 0 7.637 0 10.482s.012 3.2.064 4.318a7.7 7.7 0 0 0 .488 2.544 5.374 5.374 0 0 0 3.066 3.059 7.744 7.744 0 0 0 2.544.488c1.117.052 1.473.064 4.318.064s3.2-.012 4.318-.064a7.7 7.7 0 0 0 2.544-.488 5.373 5.373 0 0 0 3.058-3.071 7.744 7.744 0 0 0 .488-2.544c.052-1.117.064-1.473.064-4.318s-.012-3.2-.064-4.318a7.7 7.7 0 0 0-.488-2.544A5.373 5.373 0 0 0 17.334.549 7.743 7.743 0 0 0 14.79.061C13.676.012 13.32 0 10.475 0Z"/><path class="b" d="M10.476 5.094a5.379 5.379 0 1 0 5.379 5.379 5.38 5.38 0 0 0-5.379-5.379Zm0 8.871a3.492 3.492 0 1 1 3.492-3.492 3.492 3.492 0 0 1-3.492 3.492Z"/><circle class="b" cx="1.258" cy="1.258" r="1.258" transform="translate(14.809 3.624)"/></g></svg>