<svg xmlns="http://www.w3.org/2000/svg" width="30.055" height="30.055"><g transform="translate(0 .001)"><circle cx="15.027" cy="15.027" r="15.027" transform="translate(0 -.001)" style="fill:#007ab9"/><path d="M43.823 33.785v6.2h-3.592V34.2c0-1.451-.519-2.443-1.819-2.443a1.965 1.965 0 0 0-1.842 1.313 2.458 2.458 0 0 0-.119.875v6.035h-3.593s.048-9.79 0-10.8h3.592v1.531c-.007.012-.017.024-.024.035h.024v-.035a3.567 3.567 0 0 1 3.237-1.785c2.363 0 4.135 1.544 4.135 4.862ZM29.1 23.969a1.872 1.872 0 1 0-.047 3.733h.023a1.873 1.873 0 1 0 .024-3.733ZM27.281 39.98h3.591v-10.8h-3.591Z" transform="translate(-19.817 -17.549)" style="fill:#f1f2f2"/></g></svg>